<?xml version="1.0" encoding="utf-8" standalone="no"?>
<!DOCTYPE svg PUBLIC "-//W3C//DTD SVG 1.1//EN"
  "http://www.w3.org/Graphics/SVG/1.1/DTD/svg11.dtd">
<svg xmlns:xlink="http://www.w3.org/1999/xlink" width="460.8pt" height="345.6pt" viewBox="0 0 460.8 345.6" xmlns="http://www.w3.org/2000/svg" version="1.1">
 <metadata>
  <rdf:RDF xmlns:dc="http://purl.org/dc/elements/1.1/" xmlns:cc="http://creativecommons.org/ns#" xmlns:rdf="http://www.w3.org/1999/02/22-rdf-syntax-ns#">
   <cc:Work>
    <dc:type rdf:resource="http://purl.org/dc/dcmitype/StillImage"/>
    <dc:date>2023-11-16T23:10:58.675185</dc:date>
    <dc:format>image/svg+xml</dc:format>
    <dc:creator>
     <cc:Agent>
      <dc:title>Matplotlib v3.7.1, https://matplotlib.org/</dc:title>
     </cc:Agent>
    </dc:creator>
   </cc:Work>
  </rdf:RDF>
 </metadata>
 <defs>
  <style type="text/css">*{stroke-linejoin: round; stroke-linecap: butt}</style>
 </defs>
 <g id="figure_1">
  <g id="patch_1">
   <path d="M 0 345.6 
L 460.8 345.6 
L 460.8 0 
L 0 0 
z
" style="fill: #ffffff"/>
  </g>
  <g id="axes_1">
   <g id="patch_2">
    <path d="M 57.6 307.584 
L 414.72 307.584 
L 414.72 41.472 
L 57.6 41.472 
z
" style="fill: #ffffff"/>
   </g>
   <g id="PathCollection_1">
    <defs>
     <path id="m23ffb28ed0" d="M 0 3 
C 0.795609 3 1.55874 2.683901 2.12132 2.12132 
C 2.683901 1.55874 3 0.795609 3 0 
C 3 -0.795609 2.683901 -1.55874 2.12132 -2.12132 
C 1.55874 -2.683901 0.795609 -3 0 -3 
C -0.795609 -3 -1.55874 -2.683901 -2.12132 -2.12132 
C -2.683901 -1.55874 -3 -0.795609 -3 0 
C -3 0.795609 -2.683901 1.55874 -2.12132 2.12132 
C -1.55874 2.683901 -0.795609 3 0 3 
z
" style="stroke: #ff0000"/>
    </defs>
    <g clip-path="url(#p4ed50b3c6e)">
     <use xlink:href="#m23ffb28ed0" x="206.827026" y="252.313914" style="fill: #ff0000; stroke: #ff0000"/>
    </g>
   </g>
   <g id="matplotlib.axis_1">
    <g id="xtick_1">
     <g id="line2d_1">
      <path d="M 95.476364 307.584 
L 95.476364 41.472 
" clip-path="url(#p4ed50b3c6e)" style="fill: none; stroke: #b0b0b0; stroke-width: 0.8; stroke-linecap: square"/>
     </g>
     <g id="line2d_2">
      <defs>
       <path id="m2b29888338" d="M 0 0 
L 0 3.5 
" style="stroke: #000000; stroke-width: 0.8"/>
      </defs>
      <g>
       <use xlink:href="#m2b29888338" x="95.476364" y="307.584" style="stroke: #000000; stroke-width: 0.8"/>
      </g>
     </g>
     <g id="text_1">
      <!-- −4 -->
      <g transform="translate(88.10527 322.182437) scale(0.1 -0.1)">
       <defs>
        <path id="DejaVuSans-2212" d="M 678 2272 
L 4684 2272 
L 4684 1741 
L 678 1741 
L 678 2272 
z
" transform="scale(0.015625)"/>
        <path id="DejaVuSans-34" d="M 2419 4116 
L 825 1625 
L 2419 1625 
L 2419 4116 
z
M 2253 4666 
L 3047 4666 
L 3047 1625 
L 3713 1625 
L 3713 1100 
L 3047 1100 
L 3047 0 
L 2419 0 
L 2419 1100 
L 313 1100 
L 313 1709 
L 2253 4666 
z
" transform="scale(0.015625)"/>
       </defs>
       <use xlink:href="#DejaVuSans-2212"/>
       <use xlink:href="#DejaVuSans-34" x="83.789062"/>
      </g>
     </g>
    </g>
    <g id="xtick_2">
     <g id="line2d_3">
      <path d="M 138.763636 307.584 
L 138.763636 41.472 
" clip-path="url(#p4ed50b3c6e)" style="fill: none; stroke: #b0b0b0; stroke-width: 0.8; stroke-linecap: square"/>
     </g>
     <g id="line2d_4">
      <g>
       <use xlink:href="#m2b29888338" x="138.763636" y="307.584" style="stroke: #000000; stroke-width: 0.8"/>
      </g>
     </g>
     <g id="text_2">
      <!-- −2 -->
      <g transform="translate(131.392543 322.182437) scale(0.1 -0.1)">
       <defs>
        <path id="DejaVuSans-32" d="M 1228 531 
L 3431 531 
L 3431 0 
L 469 0 
L 469 531 
Q 828 903 1448 1529 
Q 2069 2156 2228 2338 
Q 2531 2678 2651 2914 
Q 2772 3150 2772 3378 
Q 2772 3750 2511 3984 
Q 2250 4219 1831 4219 
Q 1534 4219 1204 4116 
Q 875 4013 500 3803 
L 500 4441 
Q 881 4594 1212 4672 
Q 1544 4750 1819 4750 
Q 2544 4750 2975 4387 
Q 3406 4025 3406 3419 
Q 3406 3131 3298 2873 
Q 3191 2616 2906 2266 
Q 2828 2175 2409 1742 
Q 1991 1309 1228 531 
z
" transform="scale(0.015625)"/>
       </defs>
       <use xlink:href="#DejaVuSans-2212"/>
       <use xlink:href="#DejaVuSans-32" x="83.789062"/>
      </g>
     </g>
    </g>
    <g id="xtick_3">
     <g id="line2d_5">
      <path d="M 182.050909 307.584 
L 182.050909 41.472 
" clip-path="url(#p4ed50b3c6e)" style="fill: none; stroke: #b0b0b0; stroke-width: 0.8; stroke-linecap: square"/>
     </g>
     <g id="line2d_6">
      <g>
       <use xlink:href="#m2b29888338" x="182.050909" y="307.584" style="stroke: #000000; stroke-width: 0.8"/>
      </g>
     </g>
     <g id="text_3">
      <!-- 0 -->
      <g transform="translate(178.869659 322.182437) scale(0.1 -0.1)">
       <defs>
        <path id="DejaVuSans-30" d="M 2034 4250 
Q 1547 4250 1301 3770 
Q 1056 3291 1056 2328 
Q 1056 1369 1301 889 
Q 1547 409 2034 409 
Q 2525 409 2770 889 
Q 3016 1369 3016 2328 
Q 3016 3291 2770 3770 
Q 2525 4250 2034 4250 
z
M 2034 4750 
Q 2819 4750 3233 4129 
Q 3647 3509 3647 2328 
Q 3647 1150 3233 529 
Q 2819 -91 2034 -91 
Q 1250 -91 836 529 
Q 422 1150 422 2328 
Q 422 3509 836 4129 
Q 1250 4750 2034 4750 
z
" transform="scale(0.015625)"/>
       </defs>
       <use xlink:href="#DejaVuSans-30"/>
      </g>
     </g>
    </g>
    <g id="xtick_4">
     <g id="line2d_7">
      <path d="M 225.338182 307.584 
L 225.338182 41.472 
" clip-path="url(#p4ed50b3c6e)" style="fill: none; stroke: #b0b0b0; stroke-width: 0.8; stroke-linecap: square"/>
     </g>
     <g id="line2d_8">
      <g>
       <use xlink:href="#m2b29888338" x="225.338182" y="307.584" style="stroke: #000000; stroke-width: 0.8"/>
      </g>
     </g>
     <g id="text_4">
      <!-- 2 -->
      <g transform="translate(222.156932 322.182437) scale(0.1 -0.1)">
       <use xlink:href="#DejaVuSans-32"/>
      </g>
     </g>
    </g>
    <g id="xtick_5">
     <g id="line2d_9">
      <path d="M 268.625455 307.584 
L 268.625455 41.472 
" clip-path="url(#p4ed50b3c6e)" style="fill: none; stroke: #b0b0b0; stroke-width: 0.8; stroke-linecap: square"/>
     </g>
     <g id="line2d_10">
      <g>
       <use xlink:href="#m2b29888338" x="268.625455" y="307.584" style="stroke: #000000; stroke-width: 0.8"/>
      </g>
     </g>
     <g id="text_5">
      <!-- 4 -->
      <g transform="translate(265.444205 322.182437) scale(0.1 -0.1)">
       <use xlink:href="#DejaVuSans-34"/>
      </g>
     </g>
    </g>
    <g id="xtick_6">
     <g id="line2d_11">
      <path d="M 311.912727 307.584 
L 311.912727 41.472 
" clip-path="url(#p4ed50b3c6e)" style="fill: none; stroke: #b0b0b0; stroke-width: 0.8; stroke-linecap: square"/>
     </g>
     <g id="line2d_12">
      <g>
       <use xlink:href="#m2b29888338" x="311.912727" y="307.584" style="stroke: #000000; stroke-width: 0.8"/>
      </g>
     </g>
     <g id="text_6">
      <!-- 6 -->
      <g transform="translate(308.731477 322.182437) scale(0.1 -0.1)">
       <defs>
        <path id="DejaVuSans-36" d="M 2113 2584 
Q 1688 2584 1439 2293 
Q 1191 2003 1191 1497 
Q 1191 994 1439 701 
Q 1688 409 2113 409 
Q 2538 409 2786 701 
Q 3034 994 3034 1497 
Q 3034 2003 2786 2293 
Q 2538 2584 2113 2584 
z
M 3366 4563 
L 3366 3988 
Q 3128 4100 2886 4159 
Q 2644 4219 2406 4219 
Q 1781 4219 1451 3797 
Q 1122 3375 1075 2522 
Q 1259 2794 1537 2939 
Q 1816 3084 2150 3084 
Q 2853 3084 3261 2657 
Q 3669 2231 3669 1497 
Q 3669 778 3244 343 
Q 2819 -91 2113 -91 
Q 1303 -91 875 529 
Q 447 1150 447 2328 
Q 447 3434 972 4092 
Q 1497 4750 2381 4750 
Q 2619 4750 2861 4703 
Q 3103 4656 3366 4563 
z
" transform="scale(0.015625)"/>
       </defs>
       <use xlink:href="#DejaVuSans-36"/>
      </g>
     </g>
    </g>
    <g id="xtick_7">
     <g id="line2d_13">
      <path d="M 355.2 307.584 
L 355.2 41.472 
" clip-path="url(#p4ed50b3c6e)" style="fill: none; stroke: #b0b0b0; stroke-width: 0.8; stroke-linecap: square"/>
     </g>
     <g id="line2d_14">
      <g>
       <use xlink:href="#m2b29888338" x="355.2" y="307.584" style="stroke: #000000; stroke-width: 0.8"/>
      </g>
     </g>
     <g id="text_7">
      <!-- 8 -->
      <g transform="translate(352.01875 322.182437) scale(0.1 -0.1)">
       <defs>
        <path id="DejaVuSans-38" d="M 2034 2216 
Q 1584 2216 1326 1975 
Q 1069 1734 1069 1313 
Q 1069 891 1326 650 
Q 1584 409 2034 409 
Q 2484 409 2743 651 
Q 3003 894 3003 1313 
Q 3003 1734 2745 1975 
Q 2488 2216 2034 2216 
z
M 1403 2484 
Q 997 2584 770 2862 
Q 544 3141 544 3541 
Q 544 4100 942 4425 
Q 1341 4750 2034 4750 
Q 2731 4750 3128 4425 
Q 3525 4100 3525 3541 
Q 3525 3141 3298 2862 
Q 3072 2584 2669 2484 
Q 3125 2378 3379 2068 
Q 3634 1759 3634 1313 
Q 3634 634 3220 271 
Q 2806 -91 2034 -91 
Q 1263 -91 848 271 
Q 434 634 434 1313 
Q 434 1759 690 2068 
Q 947 2378 1403 2484 
z
M 1172 3481 
Q 1172 3119 1398 2916 
Q 1625 2713 2034 2713 
Q 2441 2713 2670 2916 
Q 2900 3119 2900 3481 
Q 2900 3844 2670 4047 
Q 2441 4250 2034 4250 
Q 1625 4250 1398 4047 
Q 1172 3844 1172 3481 
z
" transform="scale(0.015625)"/>
       </defs>
       <use xlink:href="#DejaVuSans-38"/>
      </g>
     </g>
    </g>
    <g id="xtick_8">
     <g id="line2d_15">
      <path d="M 398.487273 307.584 
L 398.487273 41.472 
" clip-path="url(#p4ed50b3c6e)" style="fill: none; stroke: #b0b0b0; stroke-width: 0.8; stroke-linecap: square"/>
     </g>
     <g id="line2d_16">
      <g>
       <use xlink:href="#m2b29888338" x="398.487273" y="307.584" style="stroke: #000000; stroke-width: 0.8"/>
      </g>
     </g>
     <g id="text_8">
      <!-- 10 -->
      <g transform="translate(392.124773 322.182437) scale(0.1 -0.1)">
       <defs>
        <path id="DejaVuSans-31" d="M 794 531 
L 1825 531 
L 1825 4091 
L 703 3866 
L 703 4441 
L 1819 4666 
L 2450 4666 
L 2450 531 
L 3481 531 
L 3481 0 
L 794 0 
L 794 531 
z
" transform="scale(0.015625)"/>
       </defs>
       <use xlink:href="#DejaVuSans-31"/>
       <use xlink:href="#DejaVuSans-30" x="63.623047"/>
      </g>
     </g>
    </g>
   </g>
   <g id="matplotlib.axis_2">
    <g id="ytick_1">
     <g id="line2d_17">
      <path d="M 57.6 292.063398 
L 414.72 292.063398 
" clip-path="url(#p4ed50b3c6e)" style="fill: none; stroke: #b0b0b0; stroke-width: 0.8; stroke-linecap: square"/>
     </g>
     <g id="line2d_18">
      <defs>
       <path id="m04e9b09e9a" d="M 0 0 
L -3.5 0 
" style="stroke: #000000; stroke-width: 0.8"/>
      </defs>
      <g>
       <use xlink:href="#m04e9b09e9a" x="57.6" y="292.063398" style="stroke: #000000; stroke-width: 0.8"/>
      </g>
     </g>
     <g id="text_9">
      <!-- −0.2 -->
      <g transform="translate(26.317187 295.862617) scale(0.1 -0.1)">
       <defs>
        <path id="DejaVuSans-2e" d="M 684 794 
L 1344 794 
L 1344 0 
L 684 0 
L 684 794 
z
" transform="scale(0.015625)"/>
       </defs>
       <use xlink:href="#DejaVuSans-2212"/>
       <use xlink:href="#DejaVuSans-30" x="83.789062"/>
       <use xlink:href="#DejaVuSans-2e" x="147.412109"/>
       <use xlink:href="#DejaVuSans-32" x="179.199219"/>
      </g>
     </g>
    </g>
    <g id="ytick_2">
     <g id="line2d_19">
      <path d="M 57.6 252.313914 
L 414.72 252.313914 
" clip-path="url(#p4ed50b3c6e)" style="fill: none; stroke: #b0b0b0; stroke-width: 0.8; stroke-linecap: square"/>
     </g>
     <g id="line2d_20">
      <g>
       <use xlink:href="#m04e9b09e9a" x="57.6" y="252.313914" style="stroke: #000000; stroke-width: 0.8"/>
      </g>
     </g>
     <g id="text_10">
      <!-- 0.0 -->
      <g transform="translate(34.696875 256.113133) scale(0.1 -0.1)">
       <use xlink:href="#DejaVuSans-30"/>
       <use xlink:href="#DejaVuSans-2e" x="63.623047"/>
       <use xlink:href="#DejaVuSans-30" x="95.410156"/>
      </g>
     </g>
    </g>
    <g id="ytick_3">
     <g id="line2d_21">
      <path d="M 57.6 212.564431 
L 414.72 212.564431 
" clip-path="url(#p4ed50b3c6e)" style="fill: none; stroke: #b0b0b0; stroke-width: 0.8; stroke-linecap: square"/>
     </g>
     <g id="line2d_22">
      <g>
       <use xlink:href="#m04e9b09e9a" x="57.6" y="212.564431" style="stroke: #000000; stroke-width: 0.8"/>
      </g>
     </g>
     <g id="text_11">
      <!-- 0.2 -->
      <g transform="translate(34.696875 216.363649) scale(0.1 -0.1)">
       <use xlink:href="#DejaVuSans-30"/>
       <use xlink:href="#DejaVuSans-2e" x="63.623047"/>
       <use xlink:href="#DejaVuSans-32" x="95.410156"/>
      </g>
     </g>
    </g>
    <g id="ytick_4">
     <g id="line2d_23">
      <path d="M 57.6 172.814947 
L 414.72 172.814947 
" clip-path="url(#p4ed50b3c6e)" style="fill: none; stroke: #b0b0b0; stroke-width: 0.8; stroke-linecap: square"/>
     </g>
     <g id="line2d_24">
      <g>
       <use xlink:href="#m04e9b09e9a" x="57.6" y="172.814947" style="stroke: #000000; stroke-width: 0.8"/>
      </g>
     </g>
     <g id="text_12">
      <!-- 0.4 -->
      <g transform="translate(34.696875 176.614166) scale(0.1 -0.1)">
       <use xlink:href="#DejaVuSans-30"/>
       <use xlink:href="#DejaVuSans-2e" x="63.623047"/>
       <use xlink:href="#DejaVuSans-34" x="95.410156"/>
      </g>
     </g>
    </g>
    <g id="ytick_5">
     <g id="line2d_25">
      <path d="M 57.6 133.065463 
L 414.72 133.065463 
" clip-path="url(#p4ed50b3c6e)" style="fill: none; stroke: #b0b0b0; stroke-width: 0.8; stroke-linecap: square"/>
     </g>
     <g id="line2d_26">
      <g>
       <use xlink:href="#m04e9b09e9a" x="57.6" y="133.065463" style="stroke: #000000; stroke-width: 0.8"/>
      </g>
     </g>
     <g id="text_13">
      <!-- 0.6 -->
      <g transform="translate(34.696875 136.864682) scale(0.1 -0.1)">
       <use xlink:href="#DejaVuSans-30"/>
       <use xlink:href="#DejaVuSans-2e" x="63.623047"/>
       <use xlink:href="#DejaVuSans-36" x="95.410156"/>
      </g>
     </g>
    </g>
    <g id="ytick_6">
     <g id="line2d_27">
      <path d="M 57.6 93.31598 
L 414.72 93.31598 
" clip-path="url(#p4ed50b3c6e)" style="fill: none; stroke: #b0b0b0; stroke-width: 0.8; stroke-linecap: square"/>
     </g>
     <g id="line2d_28">
      <g>
       <use xlink:href="#m04e9b09e9a" x="57.6" y="93.31598" style="stroke: #000000; stroke-width: 0.8"/>
      </g>
     </g>
     <g id="text_14">
      <!-- 0.8 -->
      <g transform="translate(34.696875 97.115199) scale(0.1 -0.1)">
       <use xlink:href="#DejaVuSans-30"/>
       <use xlink:href="#DejaVuSans-2e" x="63.623047"/>
       <use xlink:href="#DejaVuSans-38" x="95.410156"/>
      </g>
     </g>
    </g>
    <g id="ytick_7">
     <g id="line2d_29">
      <path d="M 57.6 53.566496 
L 414.72 53.566496 
" clip-path="url(#p4ed50b3c6e)" style="fill: none; stroke: #b0b0b0; stroke-width: 0.8; stroke-linecap: square"/>
     </g>
     <g id="line2d_30">
      <g>
       <use xlink:href="#m04e9b09e9a" x="57.6" y="53.566496" style="stroke: #000000; stroke-width: 0.8"/>
      </g>
     </g>
     <g id="text_15">
      <!-- 1.0 -->
      <g transform="translate(34.696875 57.365715) scale(0.1 -0.1)">
       <use xlink:href="#DejaVuSans-31"/>
       <use xlink:href="#DejaVuSans-2e" x="63.623047"/>
       <use xlink:href="#DejaVuSans-30" x="95.410156"/>
      </g>
     </g>
    </g>
   </g>
   <g id="line2d_31">
    <path d="M 73.832727 53.568 
L 120.954758 53.6835 
L 132.979001 53.921795 
L 140.45353 54.274972 
L 145.978182 54.746076 
L 150.202916 55.307909 
L 153.77769 55.987047 
L 157.027486 56.830683 
L 159.952301 57.837052 
L 162.552138 58.987179 
L 164.826994 60.242377 
L 166.776871 61.544358 
L 168.726749 63.096474 
L 170.676626 64.945143 
L 172.626503 67.144685 
L 174.2514 69.291005 
L 175.876298 71.766573 
L 177.501196 74.618401 
L 179.126093 77.898981 
L 180.750991 81.666469 
L 182.375889 85.984674 
L 184.000786 90.922767 
L 185.625684 96.554568 
L 187.250581 102.957258 
L 188.875479 110.209314 
L 190.500377 118.38739 
L 192.125274 127.561863 
L 194.075152 139.96671 
L 196.025029 153.947591 
L 197.974906 169.492919 
L 200.249762 189.442008 
L 203.174578 217.210421 
L 207.399312 257.494061 
L 209.02421 271.141445 
L 210.324128 280.489344 
L 211.299066 286.282296 
L 212.274005 290.813788 
L 212.923964 293.041859 
L 213.573923 294.576956 
L 214.223882 295.375852 
L 214.548862 295.488 
L 214.873841 295.403899 
L 215.198821 295.120941 
L 215.5238 294.637349 
L 216.173759 293.065808 
L 216.823718 290.694755 
L 217.473677 287.548036 
L 218.448616 281.477223 
L 219.748534 271.27874 
L 222.023391 250.540113 
L 223.323309 239.49828 
L 224.298247 232.88719 
L 224.948206 229.662503 
L 225.598165 227.590558 
L 225.923145 227.030414 
L 226.248124 226.804378 
L 226.573104 226.920369 
L 226.898084 227.381992 
L 227.223063 228.188141 
L 227.873022 230.803978 
L 228.522981 234.652916 
L 229.49792 242.263227 
L 232.097756 264.582128 
L 232.747715 268.185023 
L 233.072695 269.396252 
L 233.397674 270.163654 
L 233.722654 270.461247 
L 234.047633 270.274279 
L 234.372613 269.600532 
L 234.697592 268.451365 
L 235.347551 264.843983 
L 236.32249 256.976243 
L 237.947387 243.046291 
L 238.597346 239.539481 
L 238.922326 238.580098 
L 239.247305 238.221832 
L 239.572285 238.489182 
L 239.897265 239.379393 
L 240.222244 240.860476 
L 240.872203 245.318534 
L 242.82208 261.445383 
L 243.14706 262.92787 
L 243.472039 263.719122 
L 243.797019 263.758022 
L 244.121998 263.030988 
L 244.446978 261.576603 
L 245.096937 256.904369 
L 246.396855 245.761612 
L 246.721835 243.907755 
L 247.046814 242.817638 
L 247.371794 242.600036 
L 247.696773 243.287632 
L 248.021753 244.827999 
L 248.671712 249.832949 
L 249.64665 258.122523 
L 249.97163 259.87289 
L 250.296609 260.70573 
L 250.621589 260.50733 
L 250.946568 259.287792 
L 251.596527 254.476528 
L 252.571466 246.46502 
L 252.896446 245.134518 
L 253.221425 244.929463 
L 253.546405 245.897907 
L 253.871384 247.898466 
L 255.171302 258.189267 
L 255.496282 258.970254 
L 255.821261 258.441396 
L 256.146241 256.690856 
L 257.446159 246.727121 
L 257.771138 246.322011 
L 258.096118 247.358781 
L 258.746077 252.496327 
L 259.396036 257.247917 
L 259.721016 257.798556 
L 260.045995 256.773544 
L 260.695954 251.524096 
L 261.020934 248.889181 
L 261.345913 247.397462 
L 261.670893 247.555674 
L 261.995872 249.330553 
L 262.645831 254.93412 
L 262.970811 256.72688 
L 263.29579 256.802416 
L 263.62077 255.110459 
L 264.270729 249.566304 
L 264.595708 248.044384 
L 264.920688 248.434624 
L 265.245667 250.581701 
L 265.895627 255.798965 
L 266.220606 256.328704 
L 266.545586 254.801777 
L 267.195545 249.41256 
L 267.520524 248.486865 
L 267.845504 249.765424 
L 268.495463 255.099091 
L 268.820442 255.897882 
L 269.145422 254.387358 
L 269.795381 249.269187 
L 270.12036 249.162819 
L 271.095299 255.555069 
L 271.420278 254.394549 
L 272.070238 249.436577 
L 272.395217 249.76164 
L 273.045176 254.801328 
L 273.370156 254.963828 
L 274.020115 250.026535 
L 274.345094 249.769734 
L 274.995053 254.630405 
L 275.320033 254.575185 
L 275.969992 249.846509 
L 276.294971 250.623583 
L 276.619951 253.417299 
L 276.94493 254.784826 
L 277.26991 252.98735 
L 277.594889 250.354678 
L 277.919869 250.401301 
L 278.244848 253.069256 
L 278.569828 254.61061 
L 278.894808 252.799617 
L 279.219787 250.314067 
L 279.544767 250.927313 
L 279.869746 253.684278 
L 280.194726 254.182513 
L 280.519705 251.609225 
L 280.844685 250.286244 
L 281.494644 254.32237 
L 282.144603 250.383067 
L 282.469582 251.997549 
L 282.794562 254.17803 
L 283.444521 250.489211 
L 284.09448 254.092908 
L 284.419459 252.021181 
L 284.744439 250.667916 
L 285.069419 253.098652 
L 285.394398 253.624642 
L 285.719378 251.024095 
L 286.044357 251.640578 
L 286.369337 253.899414 
L 286.694316 252.071462 
L 287.019296 250.93851 
L 287.344275 253.463656 
L 287.669255 252.806152 
L 287.994234 250.832143 
L 288.319214 253.065706 
L 288.644193 253.069761 
L 288.969173 250.892953 
L 289.294152 252.9911 
L 289.619132 252.964218 
L 289.944111 250.963851 
L 290.269091 253.234836 
L 290.59407 252.495449 
L 290.91905 251.22009 
L 291.244029 253.551858 
L 291.569009 251.686923 
L 291.893989 252.022211 
L 292.218968 253.315248 
L 292.543948 251.111514 
L 292.868927 253.206948 
L 293.193907 252.034385 
L 293.518886 251.940241 
L 293.843866 253.176353 
L 294.168845 251.221275 
L 294.493825 253.384485 
L 294.818804 251.450359 
L 295.143784 252.871866 
L 295.468763 252.084212 
L 295.793743 252.244691 
L 296.118722 252.625909 
L 296.443702 251.822569 
L 296.768681 252.925855 
L 297.093661 251.630387 
L 297.41864 253.029897 
L 297.74362 251.597621 
L 298.0686 253.001015 
L 298.393579 251.68749 
L 298.718559 252.842371 
L 299.043538 251.92828 
L 299.368518 252.506335 
L 299.693497 252.362796 
L 300.018477 251.993235 
L 300.343456 252.897037 
L 300.668436 251.541677 
L 300.993415 253.124069 
L 301.318395 251.680103 
L 301.643374 252.55484 
L 301.968354 252.57894 
L 302.293333 251.643635 
L 302.618313 253.045192 
L 302.943292 251.970237 
L 303.268272 252.019852 
L 303.593251 253.022032 
L 303.918231 251.820891 
L 304.24321 252.097771 
L 304.56819 253.000844 
L 304.89317 251.997602 
L 305.218149 251.837889 
L 305.543129 252.875736 
L 305.868108 252.561716 
L 306.193088 251.69977 
L 306.518067 252.146922 
L 306.843047 252.906582 
L 307.168026 252.568522 
L 307.493006 251.821213 
L 307.817985 251.854786 
L 308.142965 252.515578 
L 308.467944 252.890366 
L 308.792924 252.614687 
L 309.117903 252.073963 
L 309.442883 251.773748 
L 309.767862 251.874074 
L 310.742801 252.770955 
L 311.39276 252.775179 
L 312.692678 252.498998 
L 313.667617 252.646224 
L 314.317576 252.754657 
L 314.642555 252.682294 
L 315.617494 251.923433 
L 315.942473 251.979427 
L 316.592432 252.695389 
L 316.917412 252.520575 
L 317.242391 252.024386 
L 317.567371 252.050717 
L 317.892351 252.600887 
L 318.21733 252.491692 
L 318.54231 251.957837 
L 318.867289 252.400802 
L 319.192269 252.557166 
L 319.517248 251.968165 
L 319.842228 252.545406 
L 320.167207 252.272381 
L 320.492187 252.195902 
L 320.817166 252.528381 
L 321.142146 252.055698 
L 321.467125 252.5819 
L 321.792105 252.061361 
L 322.117084 252.519825 
L 322.442064 252.201807 
L 322.767043 252.277175 
L 323.092023 252.519832 
L 323.417002 252.024401 
L 323.741982 252.474968 
L 324.066962 252.452811 
L 324.391941 252.043985 
L 325.0419 252.580485 
L 326.016839 252.071925 
L 326.991777 252.490719 
L 327.966716 252.532201 
L 328.616675 252.424221 
L 329.591613 252.117093 
L 330.241572 252.525143 
L 330.891532 252.126097 
L 331.216511 252.47737 
L 331.86647 252.225702 
L 332.19145 252.456459 
L 332.516429 252.157874 
L 332.841409 252.45569 
L 333.166388 252.222974 
L 333.816347 252.454535 
L 334.141327 252.152492 
L 334.791286 252.481519 
L 336.091204 252.155434 
L 337.391122 252.201201 
L 338.041081 252.458443 
L 338.69104 252.171574 
L 339.01602 252.405146 
L 339.665979 252.279571 
L 340.315938 252.326997 
L 340.640917 252.22208 
L 340.965897 252.439149 
L 341.615856 252.191228 
L 342.915774 252.344566 
L 343.890713 252.223071 
L 344.215692 252.382685 
L 344.540672 252.361993 
L 344.865651 252.214874 
L 345.190631 252.419258 
L 345.51561 252.21224 
L 345.84059 252.387034 
L 346.815528 252.278187 
L 347.465487 252.380292 
L 348.115446 252.316921 
L 348.440426 252.234453 
L 349.740344 252.385916 
L 350.065324 252.229734 
L 350.715283 252.378538 
L 351.365242 252.26752 
L 358.514791 252.329976 
L 358.839771 252.262921 
L 359.16475 252.365295 
L 359.814709 252.264778 
L 361.764586 252.325611 
L 362.414545 252.279867 
L 367.614218 252.329977 
L 369.239115 252.328913 
L 370.214054 252.292214 
L 370.539034 252.346736 
L 371.188993 252.290683 
L 380.938378 252.293656 
L 381.913317 252.309603 
L 383.213235 252.321131 
L 385.163112 252.302822 
L 386.78801 252.328908 
L 398.487273 252.320129 
L 398.487273 252.320129 
" clip-path="url(#p4ed50b3c6e)" style="fill: none; stroke: #0000ff; stroke-width: 1.5; stroke-linecap: square"/>
   </g>
   <g id="line2d_32">
    <path d="M 73.832727 252.313914 
L 398.487273 252.313914 
L 398.487273 252.313914 
" clip-path="url(#p4ed50b3c6e)" style="fill: none; stroke-dasharray: 1.5,2.475; stroke-dashoffset: 0; stroke: #000000; stroke-width: 1.5"/>
   </g>
   <g id="patch_3">
    <path d="M 57.6 307.584 
L 57.6 41.472 
" style="fill: none; stroke: #000000; stroke-width: 0.8; stroke-linejoin: miter; stroke-linecap: square"/>
   </g>
   <g id="patch_4">
    <path d="M 414.72 307.584 
L 414.72 41.472 
" style="fill: none; stroke: #000000; stroke-width: 0.8; stroke-linejoin: miter; stroke-linecap: square"/>
   </g>
   <g id="patch_5">
    <path d="M 57.6 307.584 
L 414.72 307.584 
" style="fill: none; stroke: #000000; stroke-width: 0.8; stroke-linejoin: miter; stroke-linecap: square"/>
   </g>
   <g id="patch_6">
    <path d="M 57.6 41.472 
L 414.72 41.472 
" style="fill: none; stroke: #000000; stroke-width: 0.8; stroke-linejoin: miter; stroke-linecap: square"/>
   </g>
   <g id="legend_1">
    <g id="patch_7">
     <path d="M 355.67625 78.82825 
L 407.72 78.82825 
Q 409.72 78.82825 409.72 76.82825 
L 409.72 48.472 
Q 409.72 46.472 407.72 46.472 
L 355.67625 46.472 
Q 353.67625 46.472 353.67625 48.472 
L 353.67625 76.82825 
Q 353.67625 78.82825 355.67625 78.82825 
z
" style="fill: #ffffff; opacity: 0.8; stroke: #cccccc; stroke-linejoin: miter"/>
    </g>
    <g id="PathCollection_2">
     <g>
      <use xlink:href="#m23ffb28ed0" x="367.67625" y="55.445437" style="fill: #ff0000; stroke: #ff0000"/>
     </g>
    </g>
    <g id="text_16">
     <!-- root -->
     <g transform="translate(385.67625 58.070437) scale(0.1 -0.1)">
      <defs>
       <path id="DejaVuSans-72" d="M 2631 2963 
Q 2534 3019 2420 3045 
Q 2306 3072 2169 3072 
Q 1681 3072 1420 2755 
Q 1159 2438 1159 1844 
L 1159 0 
L 581 0 
L 581 3500 
L 1159 3500 
L 1159 2956 
Q 1341 3275 1631 3429 
Q 1922 3584 2338 3584 
Q 2397 3584 2469 3576 
Q 2541 3569 2628 3553 
L 2631 2963 
z
" transform="scale(0.015625)"/>
       <path id="DejaVuSans-6f" d="M 1959 3097 
Q 1497 3097 1228 2736 
Q 959 2375 959 1747 
Q 959 1119 1226 758 
Q 1494 397 1959 397 
Q 2419 397 2687 759 
Q 2956 1122 2956 1747 
Q 2956 2369 2687 2733 
Q 2419 3097 1959 3097 
z
M 1959 3584 
Q 2709 3584 3137 3096 
Q 3566 2609 3566 1747 
Q 3566 888 3137 398 
Q 2709 -91 1959 -91 
Q 1206 -91 779 398 
Q 353 888 353 1747 
Q 353 2609 779 3096 
Q 1206 3584 1959 3584 
z
" transform="scale(0.015625)"/>
       <path id="DejaVuSans-74" d="M 1172 4494 
L 1172 3500 
L 2356 3500 
L 2356 3053 
L 1172 3053 
L 1172 1153 
Q 1172 725 1289 603 
Q 1406 481 1766 481 
L 2356 481 
L 2356 0 
L 1766 0 
Q 1100 0 847 248 
Q 594 497 594 1153 
L 594 3053 
L 172 3053 
L 172 3500 
L 594 3500 
L 594 4494 
L 1172 4494 
z
" transform="scale(0.015625)"/>
      </defs>
      <use xlink:href="#DejaVuSans-72"/>
      <use xlink:href="#DejaVuSans-6f" x="38.863281"/>
      <use xlink:href="#DejaVuSans-6f" x="100.044922"/>
      <use xlink:href="#DejaVuSans-74" x="161.226562"/>
     </g>
    </g>
    <g id="line2d_33">
     <path d="M 357.67625 69.248562 
L 367.67625 69.248562 
L 377.67625 69.248562 
" style="fill: none; stroke: #0000ff; stroke-width: 1.5; stroke-linecap: square"/>
    </g>
    <g id="text_17">
     <!-- f -->
     <g transform="translate(385.67625 72.748562) scale(0.1 -0.1)">
      <defs>
       <path id="DejaVuSans-66" d="M 2375 4863 
L 2375 4384 
L 1825 4384 
Q 1516 4384 1395 4259 
Q 1275 4134 1275 3809 
L 1275 3500 
L 2222 3500 
L 2222 3053 
L 1275 3053 
L 1275 0 
L 697 0 
L 697 3053 
L 147 3053 
L 147 3500 
L 697 3500 
L 697 3744 
Q 697 4328 969 4595 
Q 1241 4863 1831 4863 
L 2375 4863 
z
" transform="scale(0.015625)"/>
      </defs>
      <use xlink:href="#DejaVuSans-66"/>
     </g>
    </g>
   </g>
  </g>
 </g>
 <defs>
  <clipPath id="p4ed50b3c6e">
   <rect x="57.6" y="41.472" width="357.12" height="266.112"/>
  </clipPath>
 </defs>
</svg>
